PathFileType	4	(X/Y/Z)	D:\TRACE\spotREDO_2-26-24\spot_baseline_2-v60.trc
DataRate	CameraRate	NumFrames	NumMarkers	Units	OrigDataRate	OrigDataStartFrame	OrigNumFrames
100.00	100.00	      24	9	mm	100.00	5251	      7000
Frame#	Time	front left toe			Front right toe			aft left toe			aft right toe			Arm			FL body			FR body			AL Body			AR Body			
		X1	Y1	Z1	X2	Y2	Z2	X3	Y3	Z3	X4	Y4	Z4	X5	Y5	Z5	X6	Y6	Z6	X7	Y7	Z7	X8	Y8	Z8	X9	Y9	Z9	

5251	52.500	-181.17244	20.85459	-68.64864	343.31995	26.90981	-153.73029	-196.32602	23.48592	424.71899	375.22528	52.82081	396.18945	24.52820	808.58826	-293.62772	-55.90382	549.31781	-263.48129	99.79749	554.88385	-277.32669	11.77422	558.79974	618.21008	159.13089	559.09857	607.39337	
5252	52.510	-181.05786	20.51696	-68.66011	342.82727	27.30578	-154.01047	-195.92827	23.55227	424.58170	375.01639	64.73200	399.43234	23.21670	809.14880	-295.56863	-58.03844	549.24170	-265.24069	97.54810	554.22461	-278.99649	10.83731	559.02411	616.51917	158.11057	558.77478	605.39508	
5253	52.520	-181.44446	19.86039	-68.86637	342.82932	27.38857	-153.97066	-195.77066	23.77587	424.52951	373.84448	77.76930	396.19031	21.79387	809.11920	-297.07474	-59.74908	548.48016	-266.85712	95.88434	553.39734	-280.67825	9.04303	559.53473	615.10596	156.03699	559.17261	603.74725	
5254	52.530	-181.84158	19.20165	-68.95031	343.07068	27.46659	-153.89427	-196.04594	23.85605	424.59436	376.20889	92.02861	388.74884	20.09258	807.85822	-299.14371	-60.96458	548.16510	-268.38571	94.76326	552.63068	-281.94815	7.55816	560.14465	613.67572	154.25838	559.25684	602.19299	
5255	52.540	-181.95175	19.34881	-69.04472	343.14197	27.38115	-153.82124	-196.44490	23.54688	424.54596	372.57263	103.08277	381.15308	18.81726	806.32849	-300.97318	-61.91680	547.82245	-269.78409	93.66232	552.35059	-283.44839	5.75253	560.23999	612.47772	152.30611	559.45673	600.94403	
5256	52.550	-181.92021	19.45578	-69.19875	344.06320	28.12117	-153.53421	-196.77635	23.45020	424.46591	369.23474	113.20860	377.05417	18.08010	805.96698	-302.55389	-63.10467	547.54169	-271.24387	92.16841	552.16833	-284.92322	1.76419	559.12860	609.29651	151.01244	559.09949	599.65118	
5257	52.560	-181.88435	19.45316	-69.21779	343.90622	28.26931	-153.62041	-196.97975	22.91052	424.50769	363.66705	120.82489	376.75745	17.49791	806.08038	-303.55396	-64.56155	547.62335	-272.60608	91.25087	551.95093	-286.28003	0.65976	558.95825	608.15735	150.03154	558.80017	598.71179	
5258	52.570	-182.11235	19.38569	-69.21459	342.75827	27.71520	-154.16780	-196.95697	22.94790	424.45551	359.84201	128.66389	378.01123	16.33080	806.79932	-305.04071	-65.77592	547.67578	-274.13907	89.98945	551.85077	-287.39951	-0.28946	559.00964	606.87177	148.76758	558.51447	596.83362	
5259	52.580	-182.19240	19.27334	-69.18959	342.65698	27.78153	-154.25336	-196.93690	23.17739	424.41391	357.99667	135.65991	378.33099	15.75757	806.73383	-305.87653	-66.95950	547.75653	-275.46225	88.91435	551.80212	-288.81079	-1.42367	559.07532	605.68518	147.19194	558.44019	595.54395	
5260	52.590	-182.19894	19.20925	-69.28458	342.78738	27.88168	-154.23395	-196.85486	23.26416	424.37027	356.95676	142.48903	376.49081	14.80380	806.49915	-307.08942	-67.82233	547.31708	-276.31543	87.31243	551.68243	-289.99686	-2.32446	558.89478	604.92914	145.96323	558.49487	594.55536	
5261	52.600	-182.21732	19.10105	-69.33620	343.54407	28.45826	-153.93956	-196.88918	22.96666	424.35852	356.70239	147.97255	373.33606	13.55127	806.19458	-308.38629	-68.45364	546.94592	-277.58951	87.06390	551.55420	-291.11035	-3.79032	558.91772	603.75226	144.50470	558.47876	593.60840	
5262	52.610	-182.34131	18.89685	-69.46796	343.50159	28.42250	-153.93721	-197.04942	22.91734	424.44934	354.16641	150.34084	369.79956	12.39237	805.86847	-309.19623	-69.12949	546.97638	-278.48517	86.38049	551.53351	-291.83643	-5.06753	559.06738	602.91180	143.39915	558.81647	593.17297	
5263	52.620	-182.42360	18.75792	-69.53235	343.44598	28.43554	-153.96327	-197.27809	22.85127	424.50842	351.43170	149.49467	367.56860	11.34300	805.63647	-310.24930	-70.37273	547.39099	-280.09290	85.70577	551.44531	-292.57425	-5.89603	559.06830	602.19934	142.05113	558.75238	592.07776	
5264	52.630	-182.45795	18.82072	-69.54314	343.43045	28.47595	-154.01022	-197.33748	22.79469	424.47406	347.92236	147.67633	365.97040	10.91982	805.80792	-311.01547	-70.61051	547.14648	-280.22656	85.02917	551.73010	-293.35638	-6.76002	558.89099	601.15332	141.18503	558.71533	591.04431	
5265	52.640	-182.48349	19.02420	-69.48766	343.39008	28.54437	-154.12158	-197.29648	22.73333	424.44662	344.58755	145.81754	364.94565	10.41698	806.09875	-311.71225	-71.37995	547.43390	-281.26352	84.18465	551.84076	-294.28552	-7.22157	558.73676	600.32928	140.52245	558.47687	590.31677	
5266	52.650	-182.44270	19.07897	-69.49901	343.05835	28.52350	-154.57909	-197.25235	22.65394	424.41589	341.39008	145.07071	363.57712	9.80182	806.53467	-312.14832	-72.24609	547.52332	-281.75214	83.31398	552.07007	-294.88260	-7.65595	558.68140	599.77203	139.73756	558.28839	589.61633	
5267	52.660	-182.53029	19.08694	-69.48755	342.62656	28.00426	-154.61206	-197.27037	22.63920	424.40173	339.79904	145.13425	362.15579	9.22175	806.90997	-312.76563	-72.96892	547.67212	-282.47690	82.61179	552.13379	-295.66803	-8.78671	558.74487	598.94171	139.27461	558.19440	588.86371	
5268	52.670	-182.58900	18.98941	-69.53073	342.59033	28.02513	-154.60242	-197.21918	22.61097	424.38275	337.76001	145.50096	360.35162	8.50791	806.91223	-313.38596	-73.70570	547.64349	-283.13602	82.08057	552.28613	-296.23361	-9.25997	558.72290	598.50275	138.61865	558.29492	588.22943	
5269	52.680	-182.61766	18.87713	-69.56275	342.56720	28.03895	-154.61302	-197.20799	22.62523	424.35965	335.93378	145.95186	358.36069	8.02516	806.68176	-313.92789	-74.02038	547.52832	-283.42120	81.62236	552.22540	-296.75192	-9.88682	558.90167	598.00378	138.00047	558.46851	587.62592	
5270	52.690	-182.65977	18.80973	-69.58407	342.55289	28.02690	-154.63164	-197.21631	22.62923	424.35751	333.46780	145.66501	356.58054	6.64968	806.56891	-314.70840	-74.74266	547.44476	-284.07635	81.13715	552.13300	-297.26321	-10.57499	559.10480	597.36304	137.38132	558.65192	587.16644	
5271	52.700	-182.70142	18.74152	-69.62251	342.56491	28.07131	-154.62593	-197.27580	22.59828	424.30209	330.64597	144.51140	354.66602	6.12789	806.40448	-315.09085	-75.23639	547.26971	-284.77304	80.54690	552.07092	-297.79486	-10.75603	559.35980	597.09216	137.04494	559.05988	586.86285	
5272	52.710	-182.71469	18.61201	-69.78355	342.61429	28.10479	-154.61253	-197.25969	22.64182	424.28979	327.75482	142.45148	352.42340	5.65231	806.18500	-315.68323	-75.36071	547.11316	-284.99905	80.14994	552.00226	-298.17343	-11.14939	559.55841	596.66913	136.52776	559.54016	586.50647	
5273	52.720	-182.81718	18.62496	-69.80707	342.57047	28.07786	-154.61452	-197.30669	22.69508	424.17267	325.45471	137.26285	350.06992	5.29742	806.21082	-316.27264	-76.13280	547.23810	-285.96655	79.74761	551.88629	-298.59482	-11.74480	559.80292	596.27643	136.16045	559.82672	585.92871	
5274	52.730	-182.84991	18.58435	-69.87226	342.56595	28.08386	-154.62003	-197.32993	22.67000	424.23404	323.58829	129.91907	348.06757	5.22219	806.13922	-316.56985	-76.50758	547.19250	-286.20911	79.42485	551.78735	-298.94092	-12.16515	559.99176	595.77490	135.80676	559.97705	585.69061	
